<svg id="Layer_1" data-name="Layer 1" xmlns="http://www.w3.org/2000/svg" viewBox="0 0 191.03 191.03"><defs><style>.cls-1{fill:#fff;}</style></defs><title>dg</title><path class="cls-1" d="M122.78,101.39h16.89a17.93,17.93,0,1,1-5-19.43l8-9A29.92,29.92,0,0,0,94.9,84.54,30,30,0,0,0,67,65.46H37.23v59.85H67A30,30,0,0,0,94.9,106.23a29.92,29.92,0,0,0,57.81-10.84v-6H122.78ZM67,113.31H49.23V77.46H67a17.93,17.93,0,1,1,0,35.85Z"/><path class="cls-1" d="M176.88,145.49a95.58,95.58,0,1,0-31.47,31.44L185,185ZM12,95.51A83.51,83.51,0,1,1,95.51,179,83.61,83.61,0,0,1,12,95.51Z"/></svg>